<?xml version="1.0" standalone="no"?>
<!DOCTYPE svg PUBLIC "-//W3C//DTD SVG 20010904//EN"
 "http://www.w3.org/TR/2001/REC-SVG-20010904/DTD/svg10.dtd">
<svg version="1.0" xmlns="http://www.w3.org/2000/svg"
 width="450.000000pt" height="450.000000pt" viewBox="0 0 450.000000 450.000000"
 preserveAspectRatio="xMidYMid meet">
<metadata>
Created by potrace 1.10, written by Peter Selinger 2001-2011
</metadata>
<g transform="translate(0.000000,450.000000) scale(0.050000,-0.050000)"
fill="#000000" stroke="none">
<path d="M6470 5709 c-76 -28 -253 -153 -251 -178 4 -41 -5 -54 -49 -75 -27
-12 -50 -33 -50 -47 0 -13 -13 -50 -29 -80 -16 -31 -24 -64 -19 -73 6 -9 0
-16 -13 -16 -13 0 -18 13 -12 29 7 19 1 25 -16 19 -15 -6 -66 17 -112 51 -104
75 -215 81 -319 18 -70 -43 -160 -65 -160 -40 0 47 -123 81 -292 82 -98 1
-218 2 -268 3 -49 2 -135 2 -190 2 -55 0 -154 0 -220 0 -66 1 -259 1 -430 2
-170 0 -364 1 -431 2 -114 2 -289 -52 -289 -88 0 -28 -93 -8 -180 39 -71 38
-117 48 -220 46 -431 -8 -753 0 -789 20 -23 12 -72 46 -111 76 -135 104 -229
96 -383 -35 -93 -79 -112 -88 -176 -78 -39 6 -109 17 -156 24 -256 39 -505
-179 -505 -441 0 -61 -15 -147 -33 -192 -34 -86 -12 -239 35 -239 11 0 16 -8
10 -17 -16 -26 150 -178 232 -212 126 -52 292 -41 424 30 113 60 130 60 196 4
31 -27 32 -36 5 -86 -39 -77 -37 -126 11 -220 40 -77 70 -109 47 -49 -7 18 0
30 17 30 33 0 116 -58 85 -59 -12 -1 -33 10 -47 24 -22 21 -23 18 -5 -17 12
-24 17 -48 10 -54 -6 -6 8 -6 31 0 24 6 48 19 53 28 18 29 124 20 157 -13 45
-45 246 -57 269 -16 13 24 26 27 55 11 21 -11 64 -15 96 -9 33 6 53 3 46 -8
-6 -10 5 -18 24 -18 19 0 35 16 37 38 2 22 13 49 26 61 18 16 20 12 11 -18 -9
-32 -2 -40 38 -40 28 0 50 8 50 17 0 10 14 12 31 5 18 -6 26 -3 19 8 -7 11 -3
20 9 20 11 0 21 -12 21 -27 0 -19 19 -26 58 -21 38 4 62 -4 70 -24 8 -22 21
-25 46 -11 21 12 50 11 80 -2 31 -15 60 -15 91 -1 59 26 236 17 254 -13 10
-15 24 -2 41 38 24 59 50 66 50 14 0 -15 49 -23 145 -24 80 0 145 7 145 16 0
10 11 11 24 2 36 -22 221 -24 261 -3 26 13 39 9 47 -13 16 -40 80 -40 95 -1
13 34 84 41 103 10 7 -12 20 -16 30 -10 9 5 12 -10 7 -35 -9 -43 -8 -42 21 5
17 28 31 41 32 30 0 -11 7 -10 15 3 11 17 44 18 122 4 119 -22 130 -18 110 33
-13 34 -15 34 -40 -1 -15 -20 -27 -26 -27 -14 0 12 -18 19 -40 15 -21 -4 -44
1 -51 11 -6 11 3 19 21 19 18 0 27 9 20 20 -7 11 2 20 20 20 18 0 27 -9 20
-21 -9 -13 19 -17 78 -12 88 9 125 -16 62 -40 -52 -20 -33 -47 34 -47 50 0 59
5 40 24 -37 37 -29 54 21 46 78 -12 135 -34 135 -52 0 -27 73 -22 104 7 14 14
44 24 66 24 22 -1 56 6 75 15 28 14 35 9 35 -25 0 -42 102 -45 167 -4 13 7 41
15 63 16 22 2 61 9 86 17 27 9 57 6 74 -8 16 -13 38 -18 49 -11 12 8 21 6 21
-4 0 -10 14 -35 30 -56 17 -22 29 -30 28 -19 -6 44 4 50 44 29 37 -20 40 -18
29 19 -17 52 -4 53 65 2 82 -60 159 -28 147 63 -1 7 12 18 29 25 17 7 25 3 18
-8 -7 -11 -3 -20 9 -20 11 0 19 -8 16 -18 -3 -10 4 -19 15 -20 11 -1 20 7 20
19 0 46 57 55 108 18 88 -64 447 -115 412 -59 -7 12 15 20 54 20 89 -1 158
-21 145 -42 -10 -15 78 -8 146 13 14 4 25 -1 25 -12 0 -28 33 -23 67 11 16 16
49 33 73 36 24 4 50 19 59 33 13 21 18 21 25 0 6 -19 38 -10 116 33 122 66
152 109 66 92 -51 -9 -53 -7 -28 24 16 18 40 29 55 24 17 -7 27 4 27 29 0 28
14 39 48 39 57 0 221 292 192 341 -9 14 -12 44 -6 67 16 63 8 178 -14 200 -11
11 -20 41 -20 67 0 29 -9 42 -21 34 -12 -7 -19 -1 -15 15 7 31 -86 216 -109
216 -8 0 -15 -16 -16 -35 0 -32 -2 -32 -21 1 -17 29 -13 46 15 79 20 23 27 36
14 29 -14 -8 -28 7 -36 39 -7 29 -33 69 -57 89 -30 25 -35 37 -16 37 16 1 23
7 16 14 -7 7 -26 2 -41 -11 -22 -18 -31 -16 -40 7 -7 17 -1 31 13 31 16 1 15
6 -4 18 -16 10 -21 28 -11 43 11 19 6 22 -20 12 -26 -10 -32 -6 -24 16 46 120
-575 261 -797 180z m542 -234 c107 -55 220 -154 279 -243 47 -73 20 -90 -46
-29 -139 127 -353 206 -521 192 -229 -19 -317 -223 -300 -695 12 -309 7 -323
-81 -249 -218 183 -194 767 40 983 133 123 432 142 629 41z m-5052 -144 c0
-12 -8 -50 -19 -86 l-18 -65 79 0 c76 0 78 -2 67 -55 -27 -119 -30 -123 -105
-129 -119 -10 -153 -276 -35 -276 54 0 59 -15 38 -120 l-13 -64 -108 9 c-185
15 -229 108 -178 370 17 83 16 85 -35 85 -48 0 -51 5 -41 65 18 105 23 112 82
119 46 5 57 17 62 66 3 33 9 69 12 80 9 28 212 29 212 1z m5112 -113 c422
-212 549 -574 308 -878 -117 -148 -375 -270 -536 -255 l-74 7 60 25 c673 286
647 676 -69 1017 l-190 90 50 40 c76 63 275 42 451 -46z m-5711 -38 c79 -22
147 -85 168 -155 17 -57 -175 -71 -197 -14 -8 22 -32 30 -77 25 -103 -10 -80
-58 53 -109 199 -77 262 -215 147 -322 -161 -151 -515 -84 -515 97 0 61 133
65 202 5 37 -32 150 -36 169 -5 20 33 -29 69 -144 106 -336 109 -149 467 194
372z m1727 -36 c80 -47 134 -156 128 -254 l-6 -80 -235 -6 c-185 -4 -235 -11
-235 -33 0 -82 152 -122 231 -62 50 38 209 41 209 5 0 -40 -122 -146 -198
-171 -226 -76 -442 57 -442 271 0 282 311 469 548 330z m687 -8 l45 -43 0 44
c0 38 11 43 102 43 96 0 102 -3 93 -45 -5 -25 -34 -169 -65 -320 l-56 -275
-98 0 c-60 0 -94 8 -86 20 17 27 5 25 -63 -10 -252 -132 -480 155 -349 440 87
190 345 269 477 146z m838 1 l45 -42 52 41 c113 89 285 71 340 -37 38 -73 38
-144 -3 -373 l-33 -186 -107 0 c-59 0 -107 3 -107 6 0 4 18 91 40 194 48 226
42 260 -51 260 -86 0 -99 -25 -142 -268 l-34 -192 -107 0 c-58 0 -106 3 -106
6 0 4 17 88 39 188 52 243 28 309 -94 264 -47 -17 -67 -77 -105 -313 l-24
-145 -109 0 c-95 0 -108 5 -99 35 12 41 82 397 102 520 l14 85 99 0 c61 0 95
-8 87 -20 -17 -27 -7 -25 73 10 81 36 170 24 230 -33z m-2269 20 c6 -17 19
-17 51 0 47 26 205 32 205 8 -1 -104 -45 -165 -119 -165 -132 0 -221 -165
-221 -411 0 -46 -7 -49 -110 -49 -60 0 -110 3 -110 7 0 3 27 145 60 315 33
169 60 310 60 313 0 18 178 1 184 -18z m3045 -157 c44 -218 37 -218 163 -4
l102 174 122 6 122 6 -105 -156 c-57 -86 -189 -289 -292 -451 l-187 -295 -108
0 c-60 0 -106 7 -103 15 4 8 50 79 103 158 l97 143 -73 257 c-40 141 -78 273
-84 292 -9 30 4 35 98 35 l108 0 37 -180z m720 -50 c-67 -626 302 -786 896
-390 217 146 249 150 226 28 -49 -263 -581 -532 -887 -449 -280 76 -437 540
-287 846 61 125 69 120 52 -35z m743 -14 c262 -148 263 -170 7 -317 -262 -149
-268 -146 -275 149 -7 321 -6 322 268 168z m-1008 -361 c2 -58 3 -121 3 -140
0 -19 8 -35 18 -35 9 0 12 -9 5 -20 -70 -113 -147 103 -88 245 35 84 58 66 62
-50z m-2555 -410 c1 -41 12 -57 46 -61 76 -11 50 -44 -35 -44 -85 0 -99 36
-65 167 13 53 53 8 54 -62z m-1329 55 c0 -11 -22 -20 -50 -20 -27 0 -50 -9
-50 -20 0 -11 18 -20 40 -20 22 0 40 -9 40 -20 0 -11 -18 -20 -40 -20 -22 0
-40 -13 -40 -30 0 -16 -15 -30 -32 -30 -24 0 -29 12 -21 45 7 25 13 65 13 90
0 38 11 45 70 45 39 0 70 -9 70 -20z m198 -62 c29 -96 22 -110 -37 -74 -35 22
-45 21 -59 -2 -28 -44 -63 -7 -43 44 10 24 23 60 29 79 21 67 84 41 110 -47z
m250 50 c10 -26 3 -30 -38 -20 -65 17 -65 -3 1 -29 78 -29 57 -89 -30 -89 -40
0 -71 11 -77 28 -7 21 4 24 45 14 36 -9 50 -6 41 7 -7 12 -30 21 -51 21 -38 0
-55 57 -26 87 27 26 123 13 135 -19z m232 14 c0 -10 -13 -23 -30 -29 -18 -7
-30 -37 -30 -72 0 -40 -10 -61 -29 -61 -22 0 -27 15 -19 57 9 41 3 61 -20 69
-60 23 -32 54 48 54 44 0 80 -8 80 -18z m295 -13 c25 -44 6 -149 -27 -149 -16
0 -29 11 -30 25 -1 20 -3 20 -11 0 -22 -55 -63 -23 -71 56 -4 45 -3 85 2 90
22 22 122 6 137 -22z m225 15 c0 -9 -11 -27 -24 -40 -13 -13 -17 -24 -8 -24 9
0 6 -13 -8 -30 -20 -25 -19 -30 8 -30 17 0 32 -9 32 -20 0 -11 -31 -20 -70
-20 -70 0 -70 0 -70 90 0 90 0 90 70 90 39 0 70 -7 70 -16z m340 -75 c0 -116
-62 -124 -71 -9 -6 81 2 100 42 100 21 0 29 -25 29 -91z m217 14 c29 -99 29
-103 -7 -103 -16 0 -30 9 -30 20 0 11 -13 20 -30 20 -16 0 -30 -9 -30 -20 0
-11 -14 -20 -31 -20 -32 0 -30 19 13 135 28 73 88 56 115 -32z m234 29 c23
-89 4 -122 -66 -122 -36 0 -65 7 -65 15 0 8 0 47 0 85 0 90 110 108 131 22z
m149 -22 c0 -57 8 -70 40 -70 22 0 40 -9 40 -20 0 -11 -31 -20 -68 -20 -63 0
-118 127 -74 171 31 32 62 1 62 -61z m272 -20 c-3 -141 -132 -141 -132 0 0 89
1 90 67 90 66 0 67 -1 65 -90z m308 71 c0 -10 -9 -24 -20 -31 -11 -7 -20 -39
-20 -71 0 -46 -9 -59 -40 -59 -31 0 -40 13 -40 59 0 32 -9 64 -20 71 -44 27
-16 50 60 50 44 0 80 -8 80 -19z m212 -76 c1 -59 -7 -85 -25 -85 -15 0 -27 11
-27 24 0 19 -5 19 -24 0 -47 -47 -76 -26 -76 53 0 147 149 155 152 8z m132 30
c8 -82 42 -85 56 -5 13 76 48 78 56 4 8 -70 -26 -114 -88 -114 -52 0 -88 52
-88 129 0 77 56 65 64 -14z m316 43 c24 -16 24 -23 4 -32 -20 -7 -18 -16 8
-35 55 -41 21 -95 -55 -87 -68 6 -106 56 -44 57 35 0 35 1 2 21 -59 34 -39 91
35 96 11 1 34 -8 50 -20z m250 2 c7 -11 -2 -26 -21 -33 -24 -9 -30 -28 -21
-70 9 -47 4 -57 -28 -57 -31 0 -40 14 -40 59 0 32 -9 64 -20 71 -11 7 -20 21
-20 31 0 26 134 24 150 -1z m210 1 c0 -10 -9 -24 -20 -31 -12 -7 -16 -21 -10
-30 6 -10 -5 -27 -25 -38 -31 -19 -31 -21 10 -21 25 -1 45 -10 45 -21 0 -11
-31 -20 -70 -20 -70 0 -70 0 -70 90 0 90 0 90 70 90 39 0 70 -8 70 -19z m210
-71 c0 -78 -2 -80 -75 -86 l-75 -6 0 92 0 92 75 -6 c73 -6 75 -8 75 -86z"/>
<path d="M2804 5009 c-86 -61 -56 -89 96 -89 148 0 166 14 100 80 -48 48 -134
52 -196 9z"/>
<path d="M3501 4956 c-58 -61 -56 -183 3 -225 112 -78 256 11 256 157 0 108
-178 155 -259 68z"/>
<path d="M4772 3910 c-32 -48 -31 -50 13 -50 32 0 47 12 49 40 5 60 -26 65
-62 10z"/>
</g>
</svg>
